# xmcd CD database file
#
# Track frame offsets:
#	150
#	24035
#	43659
#	71230
#	92100
#	113143
#	134781
#	161874
#	184977
#	200019
#	229052
#	254984
#	265971
#
# Disc length: 3758 seconds
#
# Revision: 2
# Processed by: cddbd v1.5.1PL0 Copyright (c) Steve Scherf et al.
# Submitted via: CDex 1.51
#
DISCID=cb0eac0d
DTITLE=Various Artist - Verve Remixed 3
DYEAR=2005
DGENRE=Unknown
TTITLE0=Nina Simone - Little Blue Girl (Postal Service Remix)
TTITLE1=Billie Holiday - Speak Low (Bent Remix)
TTITLE2=Anita O'Day - Sing, Sing, Sing (RSL Remix)
TTITLE3=Sarah Vaughan - Fever (Adam Freeland Remix)
TTITLE4=Shireley Horn - Come Dance With Me (Sugardaddies Remix)
TTITLE5=Blossom Dearie - Just One of Those Things (Brazilian Girls Remix)
TTITLE6=Astrud Gilberto - Gentle Rain (RJD2 Remix)
TTITLE7=Sarah Vaughan - Peter Gunn (Max Sedgley Remix)
TTITLE8=Jimmy Smith - Stay Loose (Lyrics Born Remix)
TTITLE9=Hugh Masekela - The Boys Doin' It (Carl Craig Remix)
TTITLE10=Nina Simone - Lilac Wine (The Album Leaf Remix)
TTITLE11=Billie Holiday - Yesterday (Junior Boys Remix)
TTITLE12=Dina Washington - Baby, Did You Hear? (Danger Mouse Remix)
EXTD=YEAR: 2005
EXTT0=
EXTT1=
EXTT2=
EXTT3=
EXTT4=
EXTT5=
EXTT6=
EXTT7=
EXTT8=
EXTT9=
EXTT10=
EXTT11=
EXTT12=
PLAYORDER=
